<svg width="33" height="45" viewBox="0 0 33 45" fill="none" xmlns="http://www.w3.org/2000/svg">
<path d="M14.8655 17.1839C15.5872 15.9339 17.3914 15.9339 18.1131 17.1839L32.2633 41.6928C32.985 42.9428 32.0829 44.5053 30.6395 44.5053H2.33902C0.895641 44.5053 -0.00646049 42.9428 0.715264 41.6928L14.8655 17.1839Z" fill="#BFBFBF" fill-opacity="0.5"/>
<path d="M14.8655 9.14821C15.5872 7.89819 17.3914 7.89819 18.1131 9.14821L32.2633 33.6572C32.985 34.9071 32.0829 36.4697 30.6395 36.4697H2.33902C0.895641 36.4697 -0.00646049 34.9071 0.715264 33.6572L14.8655 9.14821Z" fill="#8F8F8F"/>
<path d="M14.8655 1.11251C15.5872 -0.137518 17.3914 -0.137518 18.1131 1.11251L32.2633 25.6215C32.985 26.8714 32.0829 28.434 30.6395 28.434H2.33902C0.895641 28.434 -0.00646049 26.8714 0.715264 25.6215L14.8655 1.11251Z" fill="white"/>
</svg>
